# xmcd
#
# Track frame offsets: 
#        150
#        17138
#        39372
#        55365
#
# Disc length: 992 seconds
#
# Revision: 0
# Processed by: cddbd v1.5.2PL0 Copyright (c) Steve Scherf et al.
# Submitted via: ExactAudioCopyFreeDBPlugin 1.0
#
DISCID=2b03de04
DTITLE=Howlin' Steam Train - Howlin' Steam Train EP
DYEAR=2010
DGENRE=Blues
TTITLE0=Stray Cat Ricochet
TTITLE1=Dead Moon Swamp Boogie
TTITLE2=Ballard of a Broken Man
TTITLE3=Midnight Whiskey Escapades
EXTD=
EXTT0=
EXTT1=
EXTT2=
EXTT3=
PLAYORDER=
